# xmcd
#
# Track frame offsets: 
#        150
#        11338
#        21822
#        28230
#        38064
#        47797
#        60485
#        71451
#        89248
#        103428
#        118777
#        130689
#        141228
#        150657
#        164088
#        176599
#        191188
#        202823
#        217827
#        229462
#
# Disc length: 3242 seconds
#
# Revision: 0
# Processed by: cddbd v1.5.2PL0 Copyright (c) Steve Scherf et al.
# Submitted via: ExactAudioCopy v1.0b4
#
DISCID=240ca814
DTITLE=Various Artist - White Boy Blues (DLP)
DYEAR=1985
DGENRE=Blues
TTITLE0=Eric Clapton - Eric Clapton - Snake Drive
TTITLE1=Eric Clapton - Eric Clapton - West Coast Idea
TTITLE2=Eric Clapton and Jimmy Page  - Eric Clapton and Jimmy Page - Choke
TTITLE2=r
TTITLE3=John Mayall and The Bluesbreakers - John Mayall and The Bluesbreak
TTITLE3=ers - I' m Your Witchdoctor
TTITLE4=Eric Clapton - Eric Clapton - Tribute To Elmore_
TTITLE5=Eric Clapton and Jimmy Page - Eric Clapton and Jimmy Page - Freigh
TTITLE5=t Loader
TTITLE6=Eric Clapton and Jimmy Page - Eric Clapton and Jimmy Page - Miles 
TTITLE6=Road
TTITLE7=John Mayall and The Bluesbreakers - John Mayall and The Bluesbreak
TTITLE7=ers - Telephone Blues
TTITLE8=Eric Clapton and Jimmy Page - Eric Clapton and Jimmy Page - Draggi
TTITLE8=n' My Tail
TTITLE9=All Stars, The  feat Jimmy Page - The All Stars feat Jimmy Pag
TTITLE9=e - Down In The Boots
TTITLE10=All Stars, The  feat Jeff Beck - The All Stars feat Jeff Beck
TTITLE10=Steelin'
TTITLE11=All Stars, The  feat Jeff Beck - The All Stars feat Jeff Beck
TTITLE11=Chuckles
TTITLE12=All Stars, The  feat Jeff Beck - The All Stars feat Jeff Beck
TTITLE12=Chuckles
TTITLE13=All Stars, The  feat Nicky Hopkins - The All Stars feat Nicky
TTITLE13=Hopkins - Piano Shuffle
TTITLE14=Cyril Davies and The All Stars - Cyril Davies and The All Stars - 
TTITLE14=Someday Baby
TTITLE15=Santa Barbara - Santa Barbara Machine Head - Porcupine Juice
TTITLE16=Santa Barbara - Santa Barbara Machine Head - Rubber Monkey
TTITLE17=Santa Barbara - Santa Barbara Machine Head - Albert
TTITLE18=Jeremy Spencer - Jeremy Spencer - Who's Knocking
TTITLE19=Jeremy Spencer - Jeremy Spencer - Look Down At My Woman
EXTD=
EXTT0=
EXTT1=
EXTT2=
EXTT3=
EXTT4=
EXTT5=
EXTT6=
EXTT7=
EXTT8=
EXTT9=
EXTT10=
EXTT11=
EXTT12=
EXTT13=
EXTT14=
EXTT15=
EXTT16=
EXTT17=
EXTT18=
EXTT19=
PLAYORDER=
